<?xml version="1.0" standalone="no"?><!DOCTYPE svg PUBLIC "-//W3C//DTD SVG 1.1//EN" "http://www.w3.org/Graphics/SVG/1.1/DTD/svg11.dtd"><svg t="1637135148100" class="icon" viewBox="0 0 1024 1024" version="1.1" xmlns="http://www.w3.org/2000/svg" p-id="3913" xmlns:xlink="http://www.w3.org/1999/xlink" width="128" height="128"><defs><style type="text/css"></style></defs><path d="M896.0064 376.738909a34.839273 34.839273 0 0 0-41.844364-26.205091l-163.211636 43.194182-144.779636-91.904c-4.817455-2.420364-115.618909-21.829818-115.618909-21.829818L131.008582 166.167273A34.909091 34.909091 0 1 0 101.731491 229.538909L384.0064 372.363636v418.909091c0 3.793455 0.488727 7.586909 1.396364 11.287273l46.545454 186.181818a46.568727 46.568727 0 0 0 90.298182-22.597818L477.097309 785.547636l9.495273-92.695272 39.424 89.879272c1.908364 5.701818 4.910545 11.008 8.820363 15.569455l139.636364 162.909091a46.545455 46.545455 0 0 0 65.652364 5.050182 46.545455 46.545455 0 0 0 5.050182-65.629091l-133.701819-155.973818L546.915491 558.545455v-147.991273l124.020364 51.223273a35.234909 35.234909 0 0 0 23.435636 2.792727l175.429818-46.010182A34.862545 34.862545 0 0 0 896.0064 376.738909zM488.733673 69.818182a81.454545 81.454545 0 1 1 0 162.909091 81.454545 81.454545 0 0 1 0-162.909091" fill="#FFBA57" p-id="3914"></path><path d="M384.0064 791.272727V558.545455h116.363636l-23.272727 232.727272z" fill="#E64A19" p-id="3915"></path><path d="M128.0064 23.272727v46.545455l93.090909 23.272727V0z" fill="#B0BEC5" p-id="3916"></path><path d="M128.0064 46.545455m-23.272727 0a23.272727 23.272727 0 1 0 46.545454 0 23.272727 23.272727 0 1 0-46.545454 0Z" fill="#455A64" p-id="3917"></path><path d="M546.194036 301.824c-4.840727-2.420364-115.642182-21.829818-115.642181-21.829818l-46.545455-17.687273V558.545455h162.909091V302.289455l-0.721455-0.465455z" fill="#7E8CCF" p-id="3918"></path><path d="M384.0064 558.545455l69.818182 69.818181 72.215273 154.368 85.410909-38.097454L546.915491 558.545455z" fill="#FF754C" p-id="3919"></path></svg>
